<svg width="73" height="255" viewBox="0 0 73 255" fill="none" xmlns="http://www.w3.org/2000/svg">
<mask id="path-1-inside-1_96_56" fill="white">
<path fill-rule="evenodd" clip-rule="evenodd" d="M101.152 177.305C111.695 187.979 118.204 202.648 118.204 218.836C118.204 235.025 111.695 249.693 101.152 260.367C111.695 271.041 118.204 285.71 118.204 301.898C118.204 334.539 91.7428 361 59.1018 361C26.4608 361 4.07527e-05 334.539 3.93259e-05 301.898C3.86183e-05 285.71 6.50866 271.041 17.0518 260.367C6.50863 249.693 -5.50655e-06 235.025 -6.21417e-06 218.836C-6.9218e-06 202.648 6.50862 187.979 17.0518 177.305C6.50862 166.631 -5.50655e-06 151.963 -6.21417e-06 135.774C-7.64096e-06 103.133 26.4608 76.6725 59.1018 76.6725C91.7428 76.6725 118.204 103.133 118.204 135.774C118.204 151.963 111.695 166.631 101.152 177.305Z"/>
</mask>
<path d="M101.152 177.305L100.44 176.603L99.7461 177.305L100.44 178.008L101.152 177.305ZM101.152 260.367L100.44 259.665L99.7462 260.367L100.44 261.07L101.152 260.367ZM17.0518 260.367L17.7633 261.07L18.4574 260.367L17.7633 259.665L17.0518 260.367ZM17.0518 177.305L17.7633 178.008L18.4574 177.305L17.7633 176.603L17.0518 177.305ZM119.204 218.836C119.204 202.374 112.584 187.456 101.863 176.603L100.44 178.008C110.806 188.503 117.204 202.921 117.204 218.836L119.204 218.836ZM101.863 261.07C112.584 250.216 119.204 235.298 119.204 218.836L117.204 218.836C117.204 234.751 110.806 249.17 100.44 259.665L101.863 261.07ZM119.204 301.898C119.204 285.436 112.584 270.518 101.863 259.665L100.44 261.07C110.806 271.565 117.204 285.983 117.204 301.898L119.204 301.898ZM59.1018 362C92.2951 362 119.204 335.092 119.204 301.898L117.204 301.898C117.204 333.987 91.1905 360 59.1018 360L59.1018 362ZM-0.999961 301.898C-0.999959 335.092 25.9085 362 59.1018 362L59.1018 360C27.0131 360 1.00004 333.987 1.00004 301.898L-0.999961 301.898ZM16.3404 259.665C5.61985 270.518 -0.999961 285.436 -0.999961 301.898L1.00004 301.898C1.00004 285.983 7.39746 271.565 17.7633 261.07L16.3404 259.665ZM-1.00001 218.836C-1.00001 235.298 5.61982 250.216 16.3404 261.07L17.7633 259.665C7.39744 249.17 0.999994 234.751 0.999994 218.836L-1.00001 218.836ZM16.3404 176.603C5.61981 187.456 -1.00001 202.374 -1.00001 218.836L0.999994 218.836C0.999993 202.921 7.39743 188.503 17.7633 178.008L16.3404 176.603ZM17.7633 176.603C7.39743 166.108 0.999994 151.689 0.999994 135.774L-1.00001 135.774C-1.00001 152.236 5.61981 167.154 16.3404 178.008L17.7633 176.603ZM0.999994 135.774C0.999992 103.686 27.013 77.6725 59.1018 77.6725L59.1018 75.6725C25.9085 75.6725 -1.00001 102.581 -1.00001 135.774L0.999994 135.774ZM59.1018 77.6725C91.1905 77.6725 117.204 103.686 117.204 135.774L119.204 135.774C119.204 102.581 92.2951 75.6725 59.1018 75.6725L59.1018 77.6725ZM117.204 135.774C117.204 151.689 110.806 166.108 100.44 176.603L101.863 178.008C112.584 167.154 119.204 152.236 119.204 135.774L117.204 135.774Z" fill="white" mask="url(#path-1-inside-1_96_56)"/>
<mask id="path-3-inside-2_96_56" fill="white">
<path fill-rule="evenodd" clip-rule="evenodd" d="M101.152 158.137C111.695 168.811 118.204 183.48 118.204 199.668C118.204 215.857 111.695 230.525 101.152 241.199C111.695 251.873 118.204 266.542 118.204 282.73C118.204 315.371 91.7428 341.832 59.1018 341.832C26.4608 341.832 4.07527e-05 315.371 3.93259e-05 282.73C3.86183e-05 266.542 6.50865 251.873 17.0518 241.199C6.50863 230.525 -5.50655e-06 215.857 -6.21417e-06 199.668C-6.9218e-06 183.48 6.50862 168.811 17.0518 158.137C6.50862 147.463 -5.50655e-06 132.795 -6.21418e-06 116.606C-7.64096e-06 83.9652 26.4608 57.5044 59.1018 57.5044C91.7428 57.5044 118.204 83.9652 118.204 116.606C118.204 132.795 111.695 147.463 101.152 158.137Z"/>
</mask>
<path d="M101.152 158.137L100.44 157.434L99.7461 158.137L100.44 158.84L101.152 158.137ZM101.152 241.199L100.44 240.496L99.7462 241.199L100.44 241.902L101.152 241.199ZM17.0518 241.199L17.7633 241.902L18.4574 241.199L17.7633 240.496L17.0518 241.199ZM17.0518 158.137L17.7633 158.84L18.4574 158.137L17.7633 157.434L17.0518 158.137ZM119.204 199.668C119.204 183.206 112.584 168.288 101.863 157.434L100.44 158.84C110.806 169.334 117.204 183.753 117.204 199.668L119.204 199.668ZM101.863 241.902C112.584 231.048 119.204 216.13 119.204 199.668L117.204 199.668C117.204 215.583 110.806 230.002 100.44 240.496L101.863 241.902ZM119.204 282.73C119.204 266.268 112.584 251.35 101.863 240.496L100.44 241.902C110.806 252.396 117.204 266.815 117.204 282.73L119.204 282.73ZM59.1018 342.832C92.2951 342.832 119.204 315.923 119.204 282.73L117.204 282.73C117.204 314.819 91.1905 340.832 59.1018 340.832L59.1018 342.832ZM-0.999961 282.73C-0.999959 315.923 25.9085 342.832 59.1018 342.832L59.1018 340.832C27.0131 340.832 1.00004 314.819 1.00004 282.73L-0.999961 282.73ZM16.3404 240.496C5.61984 251.35 -0.999961 266.268 -0.999961 282.73L1.00004 282.73C1.00004 266.815 7.39746 252.396 17.7633 241.902L16.3404 240.496ZM-1.00001 199.668C-1.00001 216.13 5.61982 231.048 16.3404 241.902L17.7633 240.496C7.39744 230.002 0.999994 215.583 0.999994 199.668L-1.00001 199.668ZM16.3404 157.434C5.61981 168.288 -1.00001 183.206 -1.00001 199.668L0.999994 199.668C0.999993 183.753 7.39743 169.334 17.7633 158.84L16.3404 157.434ZM17.7633 157.434C7.39743 146.94 0.999994 132.521 0.999994 116.606L-1.00001 116.606C-1.00001 133.068 5.61981 147.986 16.3404 158.84L17.7633 157.434ZM0.999994 116.606C0.999992 84.5175 27.013 58.5044 59.1018 58.5044L59.1018 56.5044C25.9085 56.5044 -1.00001 83.4129 -1.00001 116.606L0.999994 116.606ZM59.1018 58.5044C91.1905 58.5044 117.204 84.5175 117.204 116.606L119.204 116.606C119.204 83.4129 92.2951 56.5044 59.1018 56.5044L59.1018 58.5044ZM117.204 116.606C117.204 132.521 110.806 146.94 100.44 157.434L101.863 158.84C112.584 147.986 119.204 133.068 119.204 116.606L117.204 116.606Z" fill="white" mask="url(#path-3-inside-2_96_56)"/>
<mask id="path-5-inside-3_96_56" fill="white">
<path fill-rule="evenodd" clip-rule="evenodd" d="M101.152 138.969C111.695 149.643 118.204 164.311 118.204 180.5C118.204 196.689 111.695 211.357 101.152 222.031C111.695 232.705 118.204 247.373 118.204 263.562C118.204 296.203 91.7428 322.664 59.1018 322.664C26.4608 322.664 4.07527e-05 296.203 3.93259e-05 263.562C3.86183e-05 247.373 6.50866 232.705 17.0518 222.031C6.50863 211.357 -5.50655e-06 196.689 -6.21417e-06 180.5C-6.9218e-06 164.311 6.50862 149.643 17.0518 138.969C6.50862 128.295 -5.50655e-06 113.627 -6.21417e-06 97.438C-7.64096e-06 64.7971 26.4608 38.3363 59.1018 38.3363C91.7428 38.3363 118.204 64.7971 118.204 97.438C118.204 113.627 111.695 128.295 101.152 138.969Z"/>
</mask>
<path d="M101.152 138.969L100.44 138.266L99.7461 138.969L100.44 139.672L101.152 138.969ZM101.152 222.031L100.44 221.328L99.7462 222.031L100.44 222.734L101.152 222.031ZM17.0518 222.031L17.7633 222.734L18.4574 222.031L17.7633 221.328L17.0518 222.031ZM17.0518 138.969L17.7633 139.672L18.4574 138.969L17.7633 138.266L17.0518 138.969ZM119.204 180.5C119.204 164.038 112.584 149.12 101.863 138.266L100.44 139.672C110.806 150.166 117.204 164.585 117.204 180.5L119.204 180.5ZM101.863 222.734C112.584 211.88 119.204 196.962 119.204 180.5L117.204 180.5C117.204 196.415 110.806 210.834 100.44 221.328L101.863 222.734ZM119.204 263.562C119.204 247.1 112.584 232.182 101.863 221.328L100.44 222.734C110.806 233.228 117.204 247.647 117.204 263.562L119.204 263.562ZM59.1018 323.664C92.2951 323.664 119.204 296.755 119.204 263.562L117.204 263.562C117.204 295.651 91.1905 321.664 59.1018 321.664L59.1018 323.664ZM-0.999961 263.562C-0.999959 296.755 25.9085 323.664 59.1018 323.664L59.1018 321.664C27.0131 321.664 1.00004 295.651 1.00004 263.562L-0.999961 263.562ZM16.3404 221.328C5.61985 232.182 -0.999961 247.1 -0.999961 263.562L1.00004 263.562C1.00004 247.647 7.39747 233.228 17.7633 222.734L16.3404 221.328ZM-1.00001 180.5C-1.00001 196.962 5.61982 211.88 16.3404 222.734L17.7633 221.328C7.39744 210.834 0.999994 196.415 0.999994 180.5L-1.00001 180.5ZM16.3404 138.266C5.61981 149.12 -1.00001 164.038 -1.00001 180.5L0.999994 180.5C0.999993 164.585 7.39743 150.166 17.7633 139.672L16.3404 138.266ZM17.7633 138.266C7.39743 127.772 0.999994 113.353 0.999994 97.438L-1.00001 97.438C-1.00001 113.9 5.61981 128.818 16.3404 139.672L17.7633 138.266ZM0.999994 97.438C0.999992 65.3493 27.013 39.3363 59.1018 39.3363L59.1018 37.3363C25.9085 37.3363 -1.00001 64.2448 -1.00001 97.438L0.999994 97.438ZM59.1018 39.3363C91.1905 39.3363 117.204 65.3493 117.204 97.438L119.204 97.438C119.204 64.2448 92.2951 37.3363 59.1018 37.3363L59.1018 39.3363ZM117.204 97.438C117.204 113.353 110.806 127.772 100.44 138.266L101.863 139.672C112.584 128.818 119.204 113.9 119.204 97.438L117.204 97.438Z" fill="white" mask="url(#path-5-inside-3_96_56)"/>
<mask id="path-7-inside-4_96_56" fill="white">
<path fill-rule="evenodd" clip-rule="evenodd" d="M101.152 119.801C111.695 130.475 118.204 145.143 118.204 161.332C118.204 177.52 111.695 192.189 101.152 202.863C111.695 213.537 118.204 228.205 118.204 244.394C118.204 277.035 91.7428 303.496 59.1018 303.496C26.4608 303.496 4.07527e-05 277.035 3.93259e-05 244.394C3.86183e-05 228.205 6.50865 213.537 17.0518 202.863C6.50863 192.189 -5.50655e-06 177.52 -6.21417e-06 161.332C-6.9218e-06 145.143 6.50862 130.475 17.0518 119.801C6.50862 109.127 -5.50655e-06 94.4584 -6.21417e-06 78.2699C-7.64096e-06 45.6289 26.4608 19.1682 59.1018 19.1681C91.7428 19.1681 118.204 45.6289 118.204 78.2699C118.204 94.4584 111.695 109.127 101.152 119.801Z"/>
</mask>
<path d="M101.152 119.801L100.44 119.098L99.7461 119.801L100.44 120.504L101.152 119.801ZM101.152 202.863L100.44 202.16L99.7462 202.863L100.44 203.566L101.152 202.863ZM17.0518 202.863L17.7633 203.566L18.4574 202.863L17.7633 202.16L17.0518 202.863ZM17.0518 119.801L17.7633 120.504L18.4574 119.801L17.7633 119.098L17.0518 119.801ZM119.204 161.332C119.204 144.87 112.584 129.952 101.863 119.098L100.44 120.504C110.806 130.998 117.204 145.417 117.204 161.332L119.204 161.332ZM101.863 203.566C112.584 192.712 119.204 177.794 119.204 161.332L117.204 161.332C117.204 177.247 110.806 191.666 100.44 202.16L101.863 203.566ZM119.204 244.394C119.204 227.932 112.584 213.014 101.863 202.16L100.44 203.566C110.806 214.06 117.204 228.479 117.204 244.394L119.204 244.394ZM59.1018 304.496C92.2951 304.496 119.204 277.587 119.204 244.394L117.204 244.394C117.204 276.483 91.1905 302.496 59.1018 302.496L59.1018 304.496ZM-0.999961 244.394C-0.999959 277.587 25.9085 304.496 59.1018 304.496L59.1018 302.496C27.0131 302.496 1.00004 276.483 1.00004 244.394L-0.999961 244.394ZM16.3404 202.16C5.61984 213.014 -0.999961 227.932 -0.999961 244.394L1.00004 244.394C1.00004 228.479 7.39746 214.06 17.7633 203.566L16.3404 202.16ZM-1.00001 161.332C-1.00001 177.794 5.61982 192.712 16.3404 203.566L17.7633 202.16C7.39744 191.666 0.999994 177.247 0.999994 161.332L-1.00001 161.332ZM16.3404 119.098C5.61981 129.952 -1.00001 144.87 -1.00001 161.332L0.999994 161.332C0.999993 145.417 7.39743 130.998 17.7633 120.504L16.3404 119.098ZM17.7633 119.098C7.39743 108.604 0.999994 94.1848 0.999994 78.2699L-1.00001 78.2699C-1.00001 94.732 5.61981 109.65 16.3404 120.504L17.7633 119.098ZM0.999994 78.2699C0.999992 46.1812 27.013 20.1682 59.1018 20.1681L59.1018 18.1681C25.9085 18.1682 -1.00001 45.0766 -1.00001 78.2699L0.999994 78.2699ZM59.1018 20.1681C91.1905 20.1681 117.204 46.1812 117.204 78.2699L119.204 78.2699C119.204 45.0766 92.2951 18.1681 59.1018 18.1681L59.1018 20.1681ZM117.204 78.2699C117.204 94.1848 110.806 108.604 100.44 119.098L101.863 120.504C112.584 109.65 119.204 94.732 119.204 78.2699L117.204 78.2699Z" fill="white" mask="url(#path-7-inside-4_96_56)"/>
<mask id="path-9-inside-5_96_56" fill="white">
<path fill-rule="evenodd" clip-rule="evenodd" d="M101.152 100.633C111.695 111.307 118.204 125.975 118.204 142.164C118.204 158.352 111.695 173.021 101.152 183.695C111.695 194.369 118.204 209.037 118.204 225.226C118.204 257.867 91.7428 284.327 59.1018 284.327C26.4608 284.327 4.07527e-05 257.867 3.93259e-05 225.226C3.86183e-05 209.037 6.50865 194.369 17.0518 183.695C6.50863 173.021 -5.50655e-06 158.352 -6.21417e-06 142.164C-6.9218e-06 125.975 6.50862 111.307 17.0518 100.633C6.50862 89.9586 -5.50655e-06 75.2903 -6.21418e-06 59.1018C-7.64096e-06 26.4608 26.4608 -1.15664e-06 59.1018 -2.58342e-06C91.7428 -4.0102e-06 118.204 26.4607 118.204 59.1018C118.204 75.2903 111.695 89.9586 101.152 100.633Z"/>
</mask>
<path d="M101.152 100.633L100.44 99.93L99.7461 100.633L100.44 101.335L101.152 100.633ZM101.152 183.695L100.44 182.992L99.7462 183.695L100.44 184.397L101.152 183.695ZM17.0518 183.695L17.7633 184.397L18.4574 183.695L17.7633 182.992L17.0518 183.695ZM17.0518 100.633L17.7633 101.335L18.4574 100.633L17.7633 99.93L17.0518 100.633ZM119.204 142.164C119.204 125.702 112.584 110.784 101.863 99.93L100.44 101.335C110.806 111.83 117.204 126.249 117.204 142.164L119.204 142.164ZM101.863 184.397C112.584 173.544 119.204 158.626 119.204 142.164L117.204 142.164C117.204 158.079 110.806 172.497 100.44 182.992L101.863 184.397ZM119.204 225.226C119.204 208.764 112.584 193.846 101.863 182.992L100.44 184.397C110.806 194.892 117.204 209.311 117.204 225.226L119.204 225.226ZM59.1018 285.327C92.2951 285.327 119.204 258.419 119.204 225.226L117.204 225.226C117.204 257.314 91.1905 283.327 59.1018 283.327L59.1018 285.327ZM-0.999961 225.226C-0.999959 258.419 25.9085 285.327 59.1018 285.327L59.1018 283.327C27.0131 283.327 1.00004 257.314 1.00004 225.226L-0.999961 225.226ZM16.3404 182.992C5.61984 193.846 -0.999961 208.764 -0.999961 225.226L1.00004 225.226C1.00004 209.311 7.39746 194.892 17.7633 184.397L16.3404 182.992ZM-1.00001 142.164C-1.00001 158.626 5.61982 173.544 16.3404 184.397L17.7633 182.992C7.39744 172.497 0.999994 158.079 0.999994 142.164L-1.00001 142.164ZM16.3404 99.93C5.61981 110.784 -1.00001 125.702 -1.00001 142.164L0.999994 142.164C0.999993 126.249 7.39743 111.83 17.7633 101.335L16.3404 99.93ZM17.7633 99.93C7.39743 89.4354 0.999994 75.0167 0.999994 59.1018L-1.00001 59.1018C-1.00001 75.5639 5.61981 90.4818 16.3404 101.335L17.7633 99.93ZM0.999994 59.1018C0.999992 27.013 27.013 0.999999 59.1018 0.999997L59.1018 -1C25.9085 -1 -1.00001 25.9085 -1.00001 59.1018L0.999994 59.1018ZM59.1018 0.999997C91.1905 0.999996 117.204 27.013 117.204 59.1018L119.204 59.1018C119.204 25.9085 92.2951 -1 59.1018 -1L59.1018 0.999997ZM117.204 59.1018C117.204 75.0167 110.806 89.4355 100.44 99.93L101.863 101.335C112.584 90.4818 119.204 75.5639 119.204 59.1018L117.204 59.1018Z" fill="white" mask="url(#path-9-inside-5_96_56)"/>
</svg>
